<mxfile host="www.draw.io" modified="2020-01-01T18:55:34.520Z" agent="Mozilla/5.0 (Windows NT 10.0; Win64; x64) AppleWebKit/537.36 (KHTML, like Gecko) Chrome/79.0.3945.88 Safari/537.36" etag="0ZpzTrx0THj7-pusgOxk" version="12.4.8" type="github">
  <diagram id="nS8Z-IxNKgz3Bep8xKT9" name="Page-1">
    <mxGraphModel dx="2844" dy="1524" grid="1" gridSize="10" guides="1" tooltips="1" connect="1" arrows="1" fold="1" page="1" pageScale="1" pageWidth="827" pageHeight="1169" math="0" shadow="0">
      <root>
        <mxCell id="0"/>
        <mxCell id="1" parent="0"/>
        <mxCell id="UfBp0CyOTYnklVnx0V1o-43" value="" style="edgeStyle=orthogonalEdgeStyle;rounded=0;orthogonalLoop=1;jettySize=auto;html=1;" parent="1" source="UfBp0CyOTYnklVnx0V1o-38" target="UfBp0CyOTYnklVnx0V1o-35" edge="1">
          <mxGeometry relative="1" as="geometry">
            <mxPoint x="488" y="1095" as="targetPoint"/>
            <Array as="points">
              <mxPoint x="420" y="1000"/>
            </Array>
          </mxGeometry>
        </mxCell>
        <mxCell id="UfBp0CyOTYnklVnx0V1o-39" value="Production VPC" style="points=[[0,0],[0.25,0],[0.5,0],[0.75,0],[1,0],[1,0.25],[1,0.5],[1,0.75],[1,1],[0.75,1],[0.5,1],[0.25,1],[0,1],[0,0.75],[0,0.5],[0,0.25]];outlineConnect=0;gradientColor=none;html=1;whiteSpace=wrap;fontSize=12;fontStyle=0;shape=mxgraph.aws4.group;grIcon=mxgraph.aws4.group_vpc;strokeColor=#248814;fillColor=none;verticalAlign=top;align=left;spacingLeft=30;fontColor=#AAB7B8;dashed=0;" parent="1" vertex="1">
          <mxGeometry x="280" y="950" width="280" height="120" as="geometry"/>
        </mxCell>
        <mxCell id="UfBp0CyOTYnklVnx0V1o-3" value="VPC" style="points=[[0,0],[0.25,0],[0.5,0],[0.75,0],[1,0],[1,0.25],[1,0.5],[1,0.75],[1,1],[0.75,1],[0.5,1],[0.25,1],[0,1],[0,0.75],[0,0.5],[0,0.25]];outlineConnect=0;gradientColor=none;html=1;whiteSpace=wrap;fontSize=12;fontStyle=0;shape=mxgraph.aws4.group;grIcon=mxgraph.aws4.group_vpc;strokeColor=#248814;fillColor=none;verticalAlign=top;align=left;spacingLeft=30;fontColor=#AAB7B8;dashed=0;" parent="1" vertex="1">
          <mxGeometry x="20" y="160" width="790" height="720" as="geometry"/>
        </mxCell>
        <mxCell id="UfBp0CyOTYnklVnx0V1o-21" value="Availability Zone 1" style="fillColor=none;strokeColor=#147EBA;dashed=1;verticalAlign=top;fontStyle=0;fontColor=#147EBA;" parent="1" vertex="1">
          <mxGeometry x="440" y="120" width="320" height="800" as="geometry"/>
        </mxCell>
        <mxCell id="UfBp0CyOTYnklVnx0V1o-32" value="Public subnet 2" style="points=[[0,0],[0.25,0],[0.5,0],[0.75,0],[1,0],[1,0.25],[1,0.5],[1,0.75],[1,1],[0.75,1],[0.5,1],[0.25,1],[0,1],[0,0.75],[0,0.5],[0,0.25]];outlineConnect=0;gradientColor=none;html=1;whiteSpace=wrap;fontSize=12;fontStyle=0;shape=mxgraph.aws4.group;grIcon=mxgraph.aws4.group_security_group;grStroke=0;strokeColor=#248814;fillColor=#E9F3E6;verticalAlign=top;align=left;spacingLeft=30;fontColor=#248814;dashed=0;" parent="1" vertex="1">
          <mxGeometry x="480" y="200" width="240" height="120" as="geometry"/>
        </mxCell>
        <mxCell id="UfBp0CyOTYnklVnx0V1o-28" value="Private subnet 2&lt;br&gt;" style="points=[[0,0],[0.25,0],[0.5,0],[0.75,0],[1,0],[1,0.25],[1,0.5],[1,0.75],[1,1],[0.75,1],[0.5,1],[0.25,1],[0,1],[0,0.75],[0,0.5],[0,0.25]];outlineConnect=0;gradientColor=none;html=1;whiteSpace=wrap;fontSize=12;fontStyle=0;shape=mxgraph.aws4.group;grIcon=mxgraph.aws4.group_security_group;grStroke=0;strokeColor=#147EBA;fillColor=#E6F2F8;verticalAlign=top;align=left;spacingLeft=30;fontColor=#147EBA;dashed=0;" parent="1" vertex="1">
          <mxGeometry x="480" y="360" width="240" height="490" as="geometry"/>
        </mxCell>
        <mxCell id="UfBp0CyOTYnklVnx0V1o-4" value="Availability Zone 1" style="fillColor=none;strokeColor=#147EBA;dashed=1;verticalAlign=top;fontStyle=0;fontColor=#147EBA;" parent="1" vertex="1">
          <mxGeometry x="80" y="120" width="320" height="800" as="geometry"/>
        </mxCell>
        <mxCell id="UfBp0CyOTYnklVnx0V1o-9" value="Public subnet 1" style="points=[[0,0],[0.25,0],[0.5,0],[0.75,0],[1,0],[1,0.25],[1,0.5],[1,0.75],[1,1],[0.75,1],[0.5,1],[0.25,1],[0,1],[0,0.75],[0,0.5],[0,0.25]];outlineConnect=0;gradientColor=none;html=1;whiteSpace=wrap;fontSize=12;fontStyle=0;shape=mxgraph.aws4.group;grIcon=mxgraph.aws4.group_security_group;grStroke=0;strokeColor=#248814;fillColor=#E9F3E6;verticalAlign=top;align=left;spacingLeft=30;fontColor=#248814;dashed=0;" parent="1" vertex="1">
          <mxGeometry x="120" y="200" width="240" height="120" as="geometry"/>
        </mxCell>
        <mxCell id="UfBp0CyOTYnklVnx0V1o-11" value="Private subnet 1" style="points=[[0,0],[0.25,0],[0.5,0],[0.75,0],[1,0],[1,0.25],[1,0.5],[1,0.75],[1,1],[0.75,1],[0.5,1],[0.25,1],[0,1],[0,0.75],[0,0.5],[0,0.25]];outlineConnect=0;gradientColor=none;html=1;whiteSpace=wrap;fontSize=12;fontStyle=0;shape=mxgraph.aws4.group;grIcon=mxgraph.aws4.group_security_group;grStroke=0;strokeColor=#147EBA;fillColor=#E6F2F8;verticalAlign=top;align=left;spacingLeft=30;fontColor=#147EBA;dashed=0;" parent="1" vertex="1">
          <mxGeometry x="120" y="360" width="240" height="480" as="geometry"/>
        </mxCell>
        <mxCell id="UfBp0CyOTYnklVnx0V1o-19" value="Auto Scaling group" style="points=[[0,0],[0.25,0],[0.5,0],[0.75,0],[1,0],[1,0.25],[1,0.5],[1,0.75],[1,1],[0.75,1],[0.5,1],[0.25,1],[0,1],[0,0.75],[0,0.5],[0,0.25]];outlineConnect=0;gradientColor=none;html=1;whiteSpace=wrap;fontSize=12;fontStyle=0;shape=mxgraph.aws4.groupCenter;grIcon=mxgraph.aws4.group_auto_scaling_group;grStroke=1;strokeColor=#D86613;fillColor=none;verticalAlign=top;align=center;fontColor=#D86613;dashed=1;spacingTop=25;" parent="1" vertex="1">
          <mxGeometry x="240" y="380" width="360" height="100" as="geometry"/>
        </mxCell>
        <mxCell id="UfBp0CyOTYnklVnx0V1o-22" value="Auto Scaling group" style="points=[[0,0],[0.25,0],[0.5,0],[0.75,0],[1,0],[1,0.25],[1,0.5],[1,0.75],[1,1],[0.75,1],[0.5,1],[0.25,1],[0,1],[0,0.75],[0,0.5],[0,0.25]];outlineConnect=0;gradientColor=none;html=1;whiteSpace=wrap;fontSize=12;fontStyle=0;shape=mxgraph.aws4.groupCenter;grIcon=mxgraph.aws4.group_auto_scaling_group;grStroke=1;strokeColor=#D86613;fillColor=none;verticalAlign=top;align=center;fontColor=#D86613;dashed=1;spacingTop=25;" parent="1" vertex="1">
          <mxGeometry x="240" y="510" width="360" height="120" as="geometry"/>
        </mxCell>
        <mxCell id="qS2ewMCIV7BWuZSejtux-7" style="edgeStyle=orthogonalEdgeStyle;rounded=0;orthogonalLoop=1;jettySize=auto;html=1;" edge="1" parent="1" source="UfBp0CyOTYnklVnx0V1o-23" target="UfBp0CyOTYnklVnx0V1o-46">
          <mxGeometry relative="1" as="geometry"/>
        </mxCell>
        <mxCell id="UfBp0CyOTYnklVnx0V1o-23" value="Moloch Viewer" style="outlineConnect=0;fontColor=#232F3E;gradientColor=none;fillColor=#D86613;strokeColor=none;dashed=0;verticalLabelPosition=bottom;verticalAlign=top;align=center;html=1;fontSize=12;fontStyle=0;aspect=fixed;pointerEvents=1;shape=mxgraph.aws4.instance2;" parent="1" vertex="1">
          <mxGeometry x="270" y="400" width="48" height="48" as="geometry"/>
        </mxCell>
        <mxCell id="UfBp0CyOTYnklVnx0V1o-24" value="S3 Bucket" style="outlineConnect=0;fontColor=#232F3E;gradientColor=none;fillColor=#277116;strokeColor=none;dashed=0;verticalLabelPosition=bottom;verticalAlign=top;align=center;html=1;fontSize=12;fontStyle=0;aspect=fixed;pointerEvents=1;shape=mxgraph.aws4.bucket_with_objects;" parent="1" vertex="1">
          <mxGeometry x="70" y="995" width="38.46" height="40" as="geometry"/>
        </mxCell>
        <mxCell id="qS2ewMCIV7BWuZSejtux-8" style="edgeStyle=orthogonalEdgeStyle;rounded=0;orthogonalLoop=1;jettySize=auto;html=1;" edge="1" parent="1" source="UfBp0CyOTYnklVnx0V1o-27" target="UfBp0CyOTYnklVnx0V1o-47">
          <mxGeometry relative="1" as="geometry"/>
        </mxCell>
        <mxCell id="UfBp0CyOTYnklVnx0V1o-27" value="Moloch Viewer" style="outlineConnect=0;fontColor=#232F3E;gradientColor=none;fillColor=#D86613;strokeColor=none;dashed=0;verticalLabelPosition=bottom;verticalAlign=top;align=center;html=1;fontSize=12;fontStyle=0;aspect=fixed;pointerEvents=1;shape=mxgraph.aws4.instance2;" parent="1" vertex="1">
          <mxGeometry x="520" y="400" width="48" height="48" as="geometry"/>
        </mxCell>
        <mxCell id="UfBp0CyOTYnklVnx0V1o-29" value="NAT Gateway" style="outlineConnect=0;fontColor=#232F3E;gradientColor=none;fillColor=#5A30B5;strokeColor=none;dashed=0;verticalLabelPosition=bottom;verticalAlign=top;align=center;html=1;fontSize=12;fontStyle=0;aspect=fixed;pointerEvents=1;shape=mxgraph.aws4.nat_gateway;" parent="1" vertex="1">
          <mxGeometry x="160" y="240" width="40" height="40" as="geometry"/>
        </mxCell>
        <mxCell id="UfBp0CyOTYnklVnx0V1o-31" value="NAT Gateway" style="outlineConnect=0;fontColor=#232F3E;gradientColor=none;fillColor=#5A30B5;strokeColor=none;dashed=0;verticalLabelPosition=bottom;verticalAlign=top;align=center;html=1;fontSize=12;fontStyle=0;aspect=fixed;pointerEvents=1;shape=mxgraph.aws4.nat_gateway;" parent="1" vertex="1">
          <mxGeometry x="640" y="240" width="40" height="40" as="geometry"/>
        </mxCell>
        <mxCell id="UfBp0CyOTYnklVnx0V1o-33" value="VPC Peering" style="outlineConnect=0;fontColor=#232F3E;gradientColor=none;fillColor=#5A30B5;strokeColor=none;dashed=0;verticalLabelPosition=bottom;verticalAlign=top;align=center;html=1;fontSize=12;fontStyle=0;aspect=fixed;pointerEvents=1;shape=mxgraph.aws4.peering;" parent="1" vertex="1">
          <mxGeometry x="395" y="860" width="50" height="50" as="geometry"/>
        </mxCell>
        <mxCell id="qS2ewMCIV7BWuZSejtux-3" style="edgeStyle=orthogonalEdgeStyle;rounded=0;orthogonalLoop=1;jettySize=auto;html=1;" edge="1" parent="1" source="UfBp0CyOTYnklVnx0V1o-34" target="UfBp0CyOTYnklVnx0V1o-23">
          <mxGeometry relative="1" as="geometry"/>
        </mxCell>
        <mxCell id="qS2ewMCIV7BWuZSejtux-4" style="edgeStyle=orthogonalEdgeStyle;rounded=0;orthogonalLoop=1;jettySize=auto;html=1;" edge="1" parent="1" source="UfBp0CyOTYnklVnx0V1o-34" target="UfBp0CyOTYnklVnx0V1o-27">
          <mxGeometry relative="1" as="geometry"/>
        </mxCell>
        <mxCell id="UfBp0CyOTYnklVnx0V1o-34" value="Application&lt;br&gt;Load Balancer" style="outlineConnect=0;fontColor=#232F3E;gradientColor=none;fillColor=#5A30B5;strokeColor=none;dashed=0;verticalLabelPosition=bottom;verticalAlign=top;align=center;html=1;fontSize=12;fontStyle=0;aspect=fixed;pointerEvents=1;shape=mxgraph.aws4.application_load_balancer;" parent="1" vertex="1">
          <mxGeometry x="396.5" y="250" width="47" height="47" as="geometry"/>
        </mxCell>
        <mxCell id="UfBp0CyOTYnklVnx0V1o-35" value="Network Load Balancer" style="outlineConnect=0;fontColor=#232F3E;gradientColor=none;fillColor=#5A30B5;strokeColor=none;dashed=0;verticalLabelPosition=bottom;verticalAlign=top;align=center;html=1;fontSize=12;fontStyle=0;aspect=fixed;pointerEvents=1;shape=mxgraph.aws4.network_load_balancer;" parent="1" vertex="1">
          <mxGeometry x="400" y="650" width="40" height="40" as="geometry"/>
        </mxCell>
        <mxCell id="qS2ewMCIV7BWuZSejtux-10" style="edgeStyle=orthogonalEdgeStyle;rounded=0;orthogonalLoop=1;jettySize=auto;html=1;" edge="1" parent="1" source="UfBp0CyOTYnklVnx0V1o-36" target="UfBp0CyOTYnklVnx0V1o-46">
          <mxGeometry relative="1" as="geometry"/>
        </mxCell>
        <mxCell id="qS2ewMCIV7BWuZSejtux-11" style="edgeStyle=orthogonalEdgeStyle;rounded=0;orthogonalLoop=1;jettySize=auto;html=1;" edge="1" parent="1" source="qS2ewMCIV7BWuZSejtux-13" target="UfBp0CyOTYnklVnx0V1o-48">
          <mxGeometry relative="1" as="geometry">
            <mxPoint x="294" y="700" as="sourcePoint"/>
          </mxGeometry>
        </mxCell>
        <mxCell id="UfBp0CyOTYnklVnx0V1o-36" value="Moloch Capture" style="outlineConnect=0;fontColor=#232F3E;gradientColor=none;fillColor=#D86613;strokeColor=none;dashed=0;verticalLabelPosition=bottom;verticalAlign=top;align=center;html=1;fontSize=12;fontStyle=0;aspect=fixed;pointerEvents=1;shape=mxgraph.aws4.instance2;" parent="1" vertex="1">
          <mxGeometry x="270" y="540" width="48" height="48" as="geometry"/>
        </mxCell>
        <mxCell id="qS2ewMCIV7BWuZSejtux-9" style="edgeStyle=orthogonalEdgeStyle;rounded=0;orthogonalLoop=1;jettySize=auto;html=1;" edge="1" parent="1" source="UfBp0CyOTYnklVnx0V1o-37" target="UfBp0CyOTYnklVnx0V1o-47">
          <mxGeometry relative="1" as="geometry"/>
        </mxCell>
        <mxCell id="qS2ewMCIV7BWuZSejtux-21" style="edgeStyle=orthogonalEdgeStyle;rounded=0;orthogonalLoop=1;jettySize=auto;html=1;" edge="1" parent="1" source="UfBp0CyOTYnklVnx0V1o-37" target="qS2ewMCIV7BWuZSejtux-20">
          <mxGeometry relative="1" as="geometry"/>
        </mxCell>
        <mxCell id="qS2ewMCIV7BWuZSejtux-38" style="edgeStyle=orthogonalEdgeStyle;rounded=0;orthogonalLoop=1;jettySize=auto;html=1;" edge="1" parent="1" source="UfBp0CyOTYnklVnx0V1o-35" target="UfBp0CyOTYnklVnx0V1o-37">
          <mxGeometry relative="1" as="geometry">
            <Array as="points">
              <mxPoint x="420" y="564"/>
            </Array>
          </mxGeometry>
        </mxCell>
        <mxCell id="UfBp0CyOTYnklVnx0V1o-37" value="Moloch Capture" style="outlineConnect=0;fontColor=#232F3E;gradientColor=none;fillColor=#D86613;strokeColor=none;dashed=0;verticalLabelPosition=bottom;verticalAlign=top;align=center;html=1;fontSize=12;fontStyle=0;aspect=fixed;pointerEvents=1;shape=mxgraph.aws4.instance2;" parent="1" vertex="1">
          <mxGeometry x="520" y="540" width="48" height="48" as="geometry"/>
        </mxCell>
        <mxCell id="UfBp0CyOTYnklVnx0V1o-38" value="VPC Traffic Mirroring" style="outlineConnect=0;fontColor=#232F3E;gradientColor=none;fillColor=#5A30B5;strokeColor=none;dashed=0;verticalLabelPosition=bottom;verticalAlign=top;align=center;html=1;fontSize=12;fontStyle=0;aspect=fixed;pointerEvents=1;shape=mxgraph.aws4.vpc_traffic_mirroring;" parent="1" vertex="1">
          <mxGeometry x="395" y="985" width="50" height="50" as="geometry"/>
        </mxCell>
        <mxCell id="UfBp0CyOTYnklVnx0V1o-46" value="Elasticsearch" style="outlineConnect=0;fontColor=#232F3E;gradientColor=#945DF2;gradientDirection=north;fillColor=#5A30B5;strokeColor=#ffffff;dashed=0;verticalLabelPosition=bottom;verticalAlign=top;align=center;html=1;fontSize=12;fontStyle=0;aspect=fixed;shape=mxgraph.aws4.resourceIcon;resIcon=mxgraph.aws4.elasticsearch_service;" parent="1" vertex="1">
          <mxGeometry x="141" y="525" width="78" height="78" as="geometry"/>
        </mxCell>
        <mxCell id="UfBp0CyOTYnklVnx0V1o-47" value="Elasticsearch" style="outlineConnect=0;fontColor=#232F3E;gradientColor=#945DF2;gradientDirection=north;fillColor=#5A30B5;strokeColor=#ffffff;dashed=0;verticalLabelPosition=bottom;verticalAlign=top;align=center;html=1;fontSize=12;fontStyle=0;aspect=fixed;shape=mxgraph.aws4.resourceIcon;resIcon=mxgraph.aws4.elasticsearch_service;" parent="1" vertex="1">
          <mxGeometry x="621" y="525" width="78" height="78" as="geometry"/>
        </mxCell>
        <mxCell id="UfBp0CyOTYnklVnx0V1o-48" value="S3 Endpoint" style="outlineConnect=0;fontColor=#232F3E;gradientColor=none;fillColor=#5A30B5;strokeColor=none;dashed=0;verticalLabelPosition=bottom;verticalAlign=top;align=center;html=1;fontSize=12;fontStyle=0;aspect=fixed;pointerEvents=1;shape=mxgraph.aws4.endpoint;" parent="1" vertex="1">
          <mxGeometry x="269" y="760" width="50" height="50" as="geometry"/>
        </mxCell>
        <mxCell id="UfBp0CyOTYnklVnx0V1o-49" value="S3 Endpoint" style="outlineConnect=0;fontColor=#232F3E;gradientColor=none;fillColor=#5A30B5;strokeColor=none;dashed=0;verticalLabelPosition=bottom;verticalAlign=top;align=center;html=1;fontSize=12;fontStyle=0;aspect=fixed;pointerEvents=1;shape=mxgraph.aws4.endpoint;" parent="1" vertex="1">
          <mxGeometry x="519" y="760" width="50" height="50" as="geometry"/>
        </mxCell>
        <mxCell id="qS2ewMCIV7BWuZSejtux-6" style="edgeStyle=orthogonalEdgeStyle;rounded=0;orthogonalLoop=1;jettySize=auto;html=1;" edge="1" parent="1" source="qS2ewMCIV7BWuZSejtux-5" target="UfBp0CyOTYnklVnx0V1o-34">
          <mxGeometry relative="1" as="geometry"/>
        </mxCell>
        <mxCell id="qS2ewMCIV7BWuZSejtux-5" value="Security Admin" style="outlineConnect=0;fontColor=#232F3E;gradientColor=none;fillColor=#232F3E;strokeColor=none;dashed=0;verticalLabelPosition=bottom;verticalAlign=top;align=center;html=1;fontSize=12;fontStyle=0;aspect=fixed;pointerEvents=1;shape=mxgraph.aws4.user;" vertex="1" parent="1">
          <mxGeometry x="390" y="20" width="60" height="60" as="geometry"/>
        </mxCell>
        <mxCell id="qS2ewMCIV7BWuZSejtux-42" value="" style="edgeStyle=orthogonalEdgeStyle;rounded=0;orthogonalLoop=1;jettySize=auto;html=1;" edge="1" parent="1" source="qS2ewMCIV7BWuZSejtux-13" target="UfBp0CyOTYnklVnx0V1o-48">
          <mxGeometry relative="1" as="geometry"/>
        </mxCell>
        <mxCell id="qS2ewMCIV7BWuZSejtux-13" value="PCAP&lt;br&gt;&lt;span style=&quot;color: rgba(0 , 0 , 0 , 0) ; font-family: monospace ; font-size: 0px&quot;&gt;%3CmxGraphModel%3E%3Croot%3E%3CmxCell%20id%3D%220%22%2F%3E%3CmxCell%20id%3D%221%22%20parent%3D%220%22%2F%3E%3CmxCell%20id%3D%222%22%20style%3D%22edgeStyle%3DorthogonalEdgeStyle%3Brounded%3D0%3BorthogonalLoop%3D1%3BjettySize%3Dauto%3Bhtml%3D1%3B%22%20edge%3D%221%22%20parent%3D%221%22%3E%3CmxGeometry%20relative%3D%221%22%20as%3D%22geometry%22%3E%3CmxPoint%20x%3D%22294%22%20y%3D%22588%22%20as%3D%22sourcePoint%22%2F%3E%3CmxPoint%20x%3D%22294%22%20y%3D%22710%22%20as%3D%22targetPoint%22%2F%3E%3C%2FmxGeometry%3E%3C%2FmxCell%3E%3C%2Froot%3E%3C%2FmxGraphModel%3E&lt;/span&gt;" style="outlineConnect=0;fontColor=#232F3E;gradientColor=none;fillColor=#277116;strokeColor=none;dashed=0;verticalLabelPosition=bottom;verticalAlign=top;align=center;html=1;fontSize=12;fontStyle=0;aspect=fixed;pointerEvents=1;shape=mxgraph.aws4.object;" vertex="1" parent="1">
          <mxGeometry x="279" y="655" width="30" height="30" as="geometry"/>
        </mxCell>
        <mxCell id="qS2ewMCIV7BWuZSejtux-18" style="edgeStyle=orthogonalEdgeStyle;rounded=0;orthogonalLoop=1;jettySize=auto;html=1;" edge="1" parent="1" source="UfBp0CyOTYnklVnx0V1o-36" target="qS2ewMCIV7BWuZSejtux-13">
          <mxGeometry relative="1" as="geometry">
            <mxPoint x="294" y="588" as="sourcePoint"/>
            <mxPoint x="294" y="710" as="targetPoint"/>
          </mxGeometry>
        </mxCell>
        <mxCell id="qS2ewMCIV7BWuZSejtux-22" style="edgeStyle=orthogonalEdgeStyle;rounded=0;orthogonalLoop=1;jettySize=auto;html=1;" edge="1" parent="1" source="qS2ewMCIV7BWuZSejtux-20" target="UfBp0CyOTYnklVnx0V1o-49">
          <mxGeometry relative="1" as="geometry"/>
        </mxCell>
        <mxCell id="qS2ewMCIV7BWuZSejtux-20" value="PCAP&lt;br&gt;&lt;span style=&quot;color: rgba(0 , 0 , 0 , 0) ; font-family: monospace ; font-size: 0px&quot;&gt;%3CmxGraphModel%3E%3Croot%3E%3CmxCell%20id%3D%220%22%2F%3E%3CmxCell%20id%3D%221%22%20parent%3D%220%22%2F%3E%3CmxCell%20id%3D%222%22%20style%3D%22edgeStyle%3DorthogonalEdgeStyle%3Brounded%3D0%3BorthogonalLoop%3D1%3BjettySize%3Dauto%3Bhtml%3D1%3B%22%20edge%3D%221%22%20parent%3D%221%22%3E%3CmxGeometry%20relative%3D%221%22%20as%3D%22geometry%22%3E%3CmxPoint%20x%3D%22294%22%20y%3D%22588%22%20as%3D%22sourcePoint%22%2F%3E%3CmxPoint%20x%3D%22294%22%20y%3D%22710%22%20as%3D%22targetPoint%22%2F%3E%3C%2FmxGeometry%3E%3C%2FmxCell%3E%3C%2Froot%3E%3C%2FmxGraphModel%3E&lt;/span&gt;" style="outlineConnect=0;fontColor=#232F3E;gradientColor=none;fillColor=#277116;strokeColor=none;dashed=0;verticalLabelPosition=bottom;verticalAlign=top;align=center;html=1;fontSize=12;fontStyle=0;aspect=fixed;pointerEvents=1;shape=mxgraph.aws4.object;" vertex="1" parent="1">
          <mxGeometry x="529" y="655" width="30" height="30" as="geometry"/>
        </mxCell>
        <mxCell id="qS2ewMCIV7BWuZSejtux-33" style="edgeStyle=orthogonalEdgeStyle;rounded=0;orthogonalLoop=1;jettySize=auto;html=1;" edge="1" parent="1" source="qS2ewMCIV7BWuZSejtux-32" target="UfBp0CyOTYnklVnx0V1o-24">
          <mxGeometry relative="1" as="geometry"/>
        </mxCell>
        <mxCell id="qS2ewMCIV7BWuZSejtux-32" value="PCAPs&lt;br&gt;from Endpoints" style="outlineConnect=0;fontColor=#232F3E;gradientColor=none;fillColor=#277116;strokeColor=none;dashed=0;verticalLabelPosition=bottom;verticalAlign=top;align=center;html=1;fontSize=12;fontStyle=0;aspect=fixed;pointerEvents=1;shape=mxgraph.aws4.object;" vertex="1" parent="1">
          <mxGeometry x="189" y="1000" width="30" height="30" as="geometry"/>
        </mxCell>
        <mxCell id="qS2ewMCIV7BWuZSejtux-39" style="edgeStyle=orthogonalEdgeStyle;rounded=0;orthogonalLoop=1;jettySize=auto;html=1;" edge="1" parent="1" source="UfBp0CyOTYnklVnx0V1o-35" target="UfBp0CyOTYnklVnx0V1o-36">
          <mxGeometry relative="1" as="geometry">
            <mxPoint x="430.1428571428571" y="660" as="sourcePoint"/>
            <mxPoint x="530" y="574.1428571428571" as="targetPoint"/>
            <Array as="points">
              <mxPoint x="420" y="564"/>
            </Array>
          </mxGeometry>
        </mxCell>
      </root>
    </mxGraphModel>
  </diagram>
</mxfile>
